<svg xmlns="http://www.w3.org/2000/svg" xmlns:xlink="http://www.w3.org/1999/xlink" width="100%" height="100%" viewBox="0 0 400 400" preserveAspectRatio="none">
	<polygon points="0,0 300,0 0,250" style="fill:rgba(255,255,255,0.1);" />
	<polygon points="100,400 400,150 400,400" style="fill:rgba(0,0,0,0.035);" />

	<line x1="300" y1="0" x2="0" y2="250" style="stroke:rgba(255,255,255,0.25);stroke-width:0.25" />
	<line x1="100" y1="400" x2="400" y2="150" style="stroke:rgba(255,255,255,0.25);stroke-width:0.25" />

	<g
     transform="translate(0.000000,300.000000) scale(0.100000,-0.100000)"
     fill="#000000"
     stroke="none"
     id="g3584">
    <path
       d="M1280 2625 c-157 -43 -260 -99 -372 -204 -168 -157 -258 -346 -274 -575 -14 -209 65 -436 248 -709 120 -179 351 -446 509 -587 46 -41 86 -78 87 -82 9 -21 41 4 178 140 346 341 553 632 652 914 109 307 34 638 -195 872 -116 117 -236 186 -401 230 -128 34 -308 34 -432 1z m450 -28 c104 -33 181 -68 174 -78 -3 -5 4 -9 15 -9 12 0 21 -4 21 -10 0 -5 7 -10 16 -10 9 0 27 -11 40 -26 13 -14 24 -22 24 -17 0 4 29 -23 65 -59 36 -37 65 -72 65 -78 0 -6 4 -9 8 -6 12 7 88 -122 121 -207 42 -106 55 -195 48 -333 -5 -109 -25 -212 -38 -199 -3 3 -6 -9 -7 -27 0 -18 -6 -34 -11 -36 -6 -2 -11 -10 -11 -18 0 -8 -4 -22 -9 -32 -5 -9 -17 -37 -27 -62 -26 -62 -108 -205 -144 -248 -17 -20 -30 -41 -30 -46 0 -5 -8 -16 -18 -25 -10 -9 -35 -40 -55 -70 -73 -106 -262 -312 -414 -452 -70 -63 -79 -63 -132 0 -19 23 -40 41 -48 41 -8 0 -12 4 -9 8 3 5 -6 15 -19 22 -13 7 -22 17 -19 22 3 4 -1 8 -9 8 -7 0 -20 11 -27 25 -7 13 -16 22 -20 20 -3 -2 -13 6 -21 17 -13 19 -46 55 -157 171 -20 20 -34 37 -31 37 4 0 -9 16 -27 36 -19 19 -34 42 -34 50 0 8 -4 13 -9 10 -4 -3 -13 6 -19 19 -7 14 -16 25 -22 25 -6 0 -8 4 -5 10 3 5 1 10 -4 10 -6 0 -11 7 -11 15 0 8 -4 15 -9 15 -24 0 -186 293 -227 410 -14 40 -22 81 -19 93 4 15 3 18 -3 9 -9 -13 -21 56 -26 158 -3 55 24 231 35 225 9 -6 15 13 24 80 10 71 79 197 149 273 104 111 219 177 330 190 60 6 60 7 21 12 l-40 6 85 26 c117 37 119 37 265 33 103 -3 146 -9 205 -28z"
       id="path3586" />
    <path
       d="M1655 2530 c11 -5 27 -9 35 -9 9 0 8 4 -5 9 -11 5 -27 9 -35 9 -9 0 -8 -4 5 -9z"
       id="path3588" />
    <path
       d="M1240 2523 c-65 -21 -189 -85 -208 -107 -15 -17 -12 -17 18 3 30 19 107 58 200 99 25 11 18 15 -10 5z"
       id="path3590" />
    <path
       d="M1253 2500 c-235 -84 -412 -277 -474 -517 -10 -42 -18 -101 -18 -132 l2 -56 8 50 c4 28 11 74 15 102 3 29 10 51 13 49 4 -3 8 5 8 16 3 30 80 188 93 188 14 0 13 -3 -16 -56 -35 -62 -74 -172 -74 -207 0 -16 -3 -26 -7 -24 -9 6 -1 -249 8 -257 3 -3 3 45 1 107 -8 201 49 359 178 500 40 42 77 77 82 77 6 0 -18 -30 -53 -67 -77 -81 -120 -146 -153 -233 -114 -304 3 -638 281 -806 31 -19 62 -34 67 -34 6 1 -7 10 -29 22 -138 72 -262 221 -316 378 -27 80 -37 243 -20 329 45 227 213 419 438 498 71 25 91 28 213 28 121 0 143 -3 208 -27 148 -54 262 -142 344 -267 26 -40 48 -79 48 -87 0 -7 5 -16 11 -19 17 -11 -19 66 -63 133 -81 124 -232 228 -388 269 -88 22 -245 21 -330 -2 -67 -19 -165 -63 -212 -96 -31 -23 -35 -23 -35 -5 0 8 3 14 6 13 3 -1 49 20 101 46 191 95 401 101 587 17 69 -31 86 -32 25 -1 -67 34 -164 62 -232 67 -36 3 -71 7 -77 9 -20 7 -209 -29 -243 -45 -132 -64 -172 -89 -227 -145 -35 -34 -66 -59 -69 -56 -4 3 -5 2 -2 -4 2 -5 -6 -21 -19 -34 -19 -20 -23 -21 -23 -7 0 22 130 157 144 149 6 -3 8 -3 4 2 -12 13 96 75 252 143 41 18 -1 12 -57 -8z"
       id="path3592" />
    <path
       d="M1780 2487 c103 -45 154 -79 233 -156 367 -354 270 -970 -188 -1191 -118 -57 -191 -74 -325 -74 -139 -1 -207 16 -340 81 -165 81 -316 256 -370 428 -7 22 -16 44 -21 50 -16 16 22 -98 53 -160 76 -154 213 -286 363 -351 107 -46 133 -54 215 -62 207 -22 389 24 545 137 135 97 248 260 287 411 5 19 11 44 15 55 10 31 11 254 2 284 -5 14 -20 61 -34 103 -67 210 -243 392 -447 463 -73 25 -67 17 12 -18z"
       id="path3594" />
    <path
       d="M960 2360 c-25 -22 -40 -40 -35 -40 6 0 29 18 50 40 50 51 43 51 -15 0z"
       id="path3596" />
    <path
       d="M1970 2305 c13 -14 26 -25 28 -25 3 0 -5 11 -18 25 -13 14 -26 25 -28 25 -3 0 5 -11 18 -25z"
       id="path3598" />
    <path
       d="M863 2255 c-24 -30 -43 -58 -43 -64 0 -5 -4 -11 -8 -13 -12 -4 -68 -124 -78 -163 -10 -44 1 -28 29 43 30 73 88 171 130 219 16 18 25 33 21 32 -5 0 -28 -24 -51 -54z"
       id="path3600" />
    <path
       d="M1285 2202 c-27 -4 -58 -11 -67 -17 -9 -5 -42 -64 -73 -130 -30 -65 -67 -134 -81 -153 -23 -29 -25 -41 -23 -102 2 -38 0 -72 -4 -76 -11 -11 -8 -193 3 -215 8 -14 21 -19 48 -19 44 0 62 14 62 47 l0 23 345 0 345 0 0 -29 c0 -32 14 -41 65 -41 24 0 38 6 45 19 13 26 13 208 0 216 -6 4 -10 36 -8 75 2 61 -1 73 -28 111 -16 23 -52 92 -81 153 -29 61 -62 117 -73 125 -15 10 -71 14 -223 16 -111 2 -224 0 -252 -3z m469 -41 c7 -6 25 -37 41 -71 23 -48 26 -63 16 -73 -16 -16 -624 -18 -641 -1 -14 14 45 139 72 151 26 11 497 6 512 -6z m-546 -179 c46 -21 556 -11 613 13 13 5 23 -6 41 -43 l25 -49 -27 15 c-23 13 -33 14 -73 2 -50 -14 -97 -52 -97 -80 0 -9 9 -25 20 -35 16 -15 30 -16 92 -11 84 8 98 17 98 59 0 17 3 27 7 24 7 -8 15 -104 19 -255 l3 -113 -31 3 c-26 2 -33 9 -40 36 -6 24 -14 32 -31 32 -146 3 -321 10 -325 15 -3 3 11 6 31 7 57 2 61 2 72 11 6 4 35 22 65 40 61 36 72 60 42 95 -26 29 -41 28 -103 -10 -73 -46 -148 -45 -233 0 -32 18 -63 32 -68 32 -12 0 -58 -47 -58 -59 0 -15 56 -59 98 -77 23 -10 42 -22 42 -27 0 -4 4 -6 9 -3 4 3 28 2 52 -3 l44 -9 -55 -2 c-30 -1 -108 -4 -173 -5 -65 -1 -123 -7 -128 -12 -6 -6 -11 -20 -12 -32 -1 -24 -1 -23 -40 -26 l-27 -2 1 176 c2 115 5 169 11 155 14 -32 45 -45 116 -51 57 -5 71 -2 92 15 21 17 23 23 13 45 -19 41 -88 80 -134 75 -44 -4 -46 0 -23 48 13 28 19 31 35 24 10 -6 27 -14 37 -18z m-7 -83 c44 -15 69 -37 69 -61 0 -26 -14 -29 -95 -20 -62 6 -70 10 -73 29 -3 23 29 63 52 63 7 0 28 -5 47 -11z m661 -6 c21 -18 24 -62 6 -67 -31 -10 -134 -14 -147 -7 -23 15 -2 52 42 72 52 23 75 24 99 2z m-176 -205 c-102 -90 -278 -87 -400 7 -20 15 -19 15 1 35 21 19 22 19 88 -15 51 -27 78 -35 118 -35 54 0 140 33 165 63 12 14 15 13 36 -6 l23 -22 -31 -27z"
       id="path3602" />
    <path
       d="M2131 1995 c1 -19 18 -51 18 -35 0 8 -4 22 -9 30 -5 8 -9 11 -9 5z"
       id="path3604" />
    <path
       d="M2141 1726 c-2 -51 -60 -207 -99 -265 -115 -175 -301 -283 -517 -301 l-90 -7 76 -2 c239 -4 482 153 585 377 29 64 57 176 51 206 -3 16 -5 14 -6 -8z"
       id="path3606" />
    <path
       d="M2172 1660 c-7 -36 -34 -107 -58 -159 -38 -77 -60 -108 -127 -175 -45 -44 -107 -96 -139 -114 -75 -45 -189 -83 -263 -89 -33 -3 -67 -10 -75 -15 -21 -12 101 1 170 19 180 46 358 190 438 353 42 85 76 196 70 227 -2 10 -9 -12 -16 -47z"
       id="path3608" />
    <path
       d="M821 1624 c0 -11 3 -14 6 -6 3 7 2 16 -1 19 -3 4 -6 -2 -5 -13z"
       id="path3610" />
    <path
       d="M1308 1133 c7 -3 16 -2 19 1 4 3 -2 6 -13 5 -11 0 -14 -3 -6 -6z"
       id="path3612" />
    <path
       d="M1408 1113 c12 -2 32 -2 45 0 12 2 2 4 -23 4 -25 0 -35 -2 -22 -4z"
       id="path3614" />
  </g>
  <path
     style="fill:#000000"
     d="m 236.12241,184.69495 c -0.96159,-0.64208 -2.59559,-2.77625 -3.63112,-4.74262 -1.77834,-3.37692 -2.8711,-3.57866 -19.70292,-3.63741 -17.24274,-0.0602 -17.64223,-0.13937 -12.32905,-2.44422 8.32677,-3.61213 15.96017,-10.00871 15.96017,-13.37418 0,-1.65385 -1.53238,-4.08031 -3.40528,-5.39215 -3.10138,-2.17229 -4.08933,-2.03852 -11.07006,1.49888 -9.94753,5.0408 -19.28138,5.03041 -30.21157,-0.0336 l -8.45586,-3.91766 -3.61929,3.40015 c -1.99061,1.87008 -3.61929,4.35695 -3.61929,5.52638 0,2.42215 15.85218,13.04612 20.1832,13.52658 1.57138,0.17432 -5.36594,0.71061 -15.41626,1.19174 -17.01241,0.81443 -18.38153,1.12149 -19.84183,4.45 -0.86269,1.96637 -2.82906,3.57521 -4.3697,3.57521 -2.52153,0 -2.80118,-1.92299 -2.80118,-19.26236 0,-17.23526 0.25973,-19.0468 2.46804,-17.21407 3.55144,2.94744 16.50404,4.56482 21.79256,2.72123 3.62346,-1.26314 4.42044,-2.39132 4.03145,-5.70678 -0.59381,-5.06118 -9.37867,-11.38547 -15.81517,-11.38547 -4.53242,0 -5.6656,-2.10999 -3.21035,-5.97772 0.99215,-1.56293 2.42224,-1.60461 6.48315,-0.18897 3.58805,1.2508 17.01633,1.58998 43.13012,1.0894 31.62507,-0.60622 38.06243,-0.35544 38.77852,1.51067 1.30607,3.40357 1.16011,3.56662 -3.19273,3.56662 -8.33962,0 -19.13885,8.40177 -17.22151,13.39828 0.57724,1.50424 2.56084,3.29922 4.40802,3.98883 4.46894,1.6684 19.99945,-0.44507 21.53564,-2.93067 1.54564,-2.5009 3.2421,11.26714 3.26032,26.45987 0.0135,11.26043 -0.55507,12.6831 -4.11802,10.30406 z"
     id="path4120"
     inkscape:connector-curvature="0"
     transform="scale(0.8,0.8)" />
  <path
     style="fill:#000000"
     d="m 132.01114,187.87471 c -0.69971,-0.28111 -1.54675,-1.2131 -1.88231,-2.07111 -0.93975,-2.40285 -1.34482,-20.34003 -0.55946,-24.77352 0.36559,-2.06383 0.71885,-7.29442 0.78501,-11.62353 l 0.12029,-7.87111 2.86793,-4.48828 c 1.57736,-2.46855 6.06585,-10.83604 9.97441,-18.59443 3.90856,-7.75839 7.68237,-14.72756 8.38623,-15.48704 2.50348,-2.7013 5.97154,-2.993139 35.23108,-2.96473 19.35876,0.0188 27.56394,0.22087 29.88632,0.73605 3.06949,0.68089 3.29139,0.8533 5.38983,4.18751 1.2037,1.91256 4.89434,8.82874 8.20143,15.36928 3.30709,6.54053 7.05659,13.49269 8.33222,15.44923 3.37696,5.17953 3.75498,6.61459 3.78279,14.36044 0.0187,5.21099 0.26213,7.45003 1.00779,9.26954 0.81998,2.00087 0.9805,4.17033 0.96727,13.07299 -0.0174,11.7365 -0.49008,14.2977 -2.83578,15.36647 -1.79637,0.81848 -6.2777,0.83083 -8.59309,0.0237 -2.2636,-0.78913 -2.88093,-1.97235 -2.88093,-5.52191 l 0,-2.84589 -43.25785,0 -43.25786,0 0,1.88244 c 0,3.26055 -1.09866,5.46776 -3.14783,6.32396 -2.09328,0.87462 -6.57615,0.97985 -8.51749,0.19993 z m 109.15642,-11.91752 c -0.43342,-13.14061 -1.34031,-28.95339 -1.87483,-32.69012 -0.5652,-3.95123 -1.57001,-3.85006 -2.0287,0.20426 -0.30101,2.6605 -0.67721,3.60449 -1.7832,4.47446 -1.84858,1.45409 -5.87629,2.273 -13.25641,2.69526 l -6.03966,0.34556 -2.26583,-2.26584 c -2.94787,-2.94786 -2.95595,-4.48339 -0.0402,-7.64655 2.7807,-3.0167 6.6432,-5.14786 11.30605,-6.23821 3.60021,-0.84186 3.60566,-0.84125 7.11416,0.79828 1.93116,0.90243 3.51119,1.3637 3.51119,1.02505 0,-1.15495 -5.09158,-9.96038 -6.21399,-10.74655 -0.94022,-0.65855 -1.61982,-0.66724 -4.25619,-0.0544 -2.75424,0.64024 -15.14586,1.6459 -26.04619,2.11382 -2.0084,0.0862 2.92131,0.22761 10.95491,0.31421 18.24136,0.19665 19.90247,0.39085 21.04744,2.46074 0.76527,1.38347 0.76749,1.61973 0.0197,2.09811 -0.46348,0.2965 -2.03403,0.54296 -3.49012,0.54769 -5.33694,0.0173 -12.68881,3.99157 -15.71253,8.49378 -0.87102,1.29686 -1.58364,2.9178 -1.58364,3.60209 0,1.6277 1.89492,3.99337 4.12259,5.14674 3.44603,1.78418 17.90614,0.58162 21.52597,-1.79018 1.04897,-0.68731 1.39563,-0.72068 1.60647,-0.15462 1.01861,2.73482 1.48781,8.12858 1.77656,20.42243 0.37471,15.95399 0.17978,17.14385 -2.57518,15.71921 -0.87452,-0.45224 -2.42069,-2.1167 -3.43592,-3.6988 -3.09318,-4.82029 -2.76174,-4.73364 -18.78123,-4.90986 -7.73882,-0.0851 -14.70152,-0.29513 -15.47266,-0.46669 -1.20256,-0.26753 -0.63497,-0.70666 3.98885,-3.08602 5.84994,-3.01031 11.71315,-7.84351 12.85282,-10.5949 0.91401,-2.20663 0.0587,-4.42662 -2.60719,-6.76734 -2.6824,-2.35517 -5.00776,-2.23533 -10.77882,0.55549 -6.522,3.15396 -10.08735,4.06816 -15.7505,4.03863 -5.68811,-0.0297 -10.00755,-1.22454 -18.24069,-5.04586 l -5.54178,-2.57215 -3.59147,3.69882 c -4.39613,4.52754 -4.54505,5.60887 -1.19736,8.69466 2.94417,2.71384 8.14866,6.2768 12.0533,8.25163 3.21751,1.62728 3.52987,1.7149 3.52987,0.99004 0,-0.27071 -1.83284,-1.44904 -4.07298,-2.61851 -8.47999,-4.42699 -13.74584,-8.77827 -13.09708,-10.82235 0.46846,-1.47598 5.64425,-6.29139 6.76223,-6.29139 0.48186,0 3.65733,1.39483 7.05659,3.09963 7.33406,3.67817 11.14179,4.76543 16.68906,4.76543 5.02797,0 9.29498,-1.34655 15.27193,-4.81939 2.38834,-1.38772 5.27743,-2.67486 6.4202,-2.8603 1.89664,-0.30779 2.27238,-0.1326 4.31015,2.00954 4.34455,4.56707 2.88174,7.05303 -8.16074,13.86867 l -6.17969,3.81424 -5.6179,0.40281 c -6.46033,0.46321 -5.8988,0.36896 -5.8988,0.99005 0,0.76146 4.58196,1.10748 23.87609,1.80309 9.88751,0.35647 18.41808,0.88046 18.95683,1.16441 0.53874,0.28395 1.26005,1.6303 1.6029,2.99189 0.95789,3.80415 2.33804,4.6281 8.84195,5.27871 0.61368,0.0614 0.6854,-1.89522 0.39368,-10.73941 z m -101.28318,9.32612 c 0.54089,-0.15006 0.99422,-0.82431 1.00779,-1.49891 0.0136,-0.67439 0.37409,-2.23739 0.80117,-3.47333 0.74798,-2.16459 0.74191,-2.19641 -0.16511,-0.8659 -3.2936,4.83139 -5.85156,5.96811 -6.68926,2.97261 -0.5133,-1.83545 -0.5893,-34.15943 -0.0815,-34.66683 0.1928,-0.19265 1.20545,0.15414 2.25033,0.77063 2.91482,1.71979 8.63691,2.83981 14.55515,2.84898 4.45038,0.007 5.78319,-0.2059 7.86506,-1.25572 1.80201,-0.9087 2.56157,-1.65884 2.70203,-2.66851 l 0.19538,-1.40447 -1.16324,1.47366 c -2.6154,3.31337 -7.98549,4.10527 -16.97003,2.50248 -5.0485,-0.90062 -7.35541,-1.99019 -9.04107,-4.27017 -0.85508,-1.15655 -1.42299,-1.49901 -1.82281,-1.09919 -0.37031,0.37031 -0.66037,8.02334 -0.80044,21.1197 l -0.21969,20.53894 3.29656,-0.37562 c 1.8131,-0.20659 3.73896,-0.49835 4.27969,-0.64835 z m 22.89295,-8.10356 c 9.42404,-0.31273 18.77785,-0.71983 20.78625,-0.90467 3.13497,-0.28851 3.42066,-0.40076 2.01921,-0.79336 -0.89784,-0.25151 -3.50369,-0.74094 -5.79079,-1.08763 -3.44206,-0.52176 -4.37049,-0.49176 -5.38995,0.17418 -0.82934,0.54176 -3.80039,0.93314 -9.09666,1.19834 -12.15334,0.60853 -20.54192,1.41147 -21.55248,2.06295 -0.73738,0.47538 -0.64142,0.52593 0.48534,0.25567 0.77246,-0.18529 9.11505,-0.59276 18.53908,-0.90548 z m 34.01073,-5.86577 c 4.77822,-1.2146 10.64877,-4.25496 14.75287,-7.6405 l 3.53947,-2.91977 -2.13173,-2.1831 c -2.97952,-3.0513 -4.19579,-3.22695 -6.75933,-0.97613 -2.96384,2.60229 -9.20745,5.33667 -14.82665,6.49333 -6.68251,1.37553 -10.50445,0.64204 -19.58131,-3.75792 -3.78181,-1.83322 -7.43164,-3.33312 -8.11073,-3.33312 -1.60801,0 -5.08986,3.5578 -4.63694,4.73809 0.41346,1.07746 6.93676,5.33163 10.766,7.02104 7.35138,3.24334 19.69126,4.41297 26.98835,2.55808 z m -39.02991,-23.32562 c 1.72264,-0.92193 1.43571,-4.03791 -0.5836,-6.33777 -2.06935,-2.35687 -7.52151,-4.86445 -11.46053,-5.271 -2.73755,-0.28254 -3.12225,-0.16888 -4.99551,1.47587 -3.7626,3.3036 -4.17837,7.87904 -0.81678,8.98846 4.14857,1.36915 16.01542,2.12971 17.85642,1.14444 z m 68.18245,0.008 c 7.64492,-0.63332 9.30769,-1.33936 9.30769,-3.95222 0,-2.65239 -1.44755,-5.45516 -3.47738,-6.73296 -2.51147,-1.581 -6.52996,-1.18301 -11.36773,1.12584 -3.98107,1.89999 -6.50293,4.57055 -6.50293,6.88638 0,1.72272 0.85284,2.50418 3.08985,2.83128 0.92696,0.13553 1.81178,0.2803 1.96627,0.32171 0.15449,0.0414 3.29739,-0.17461 6.98423,-0.48003 z m -64.24947,-5.22739 c -1.51196,-3.97677 -8.44463,-8.48962 -14.32001,-9.32168 -2.07428,-0.29375 -4.14961,-0.84797 -4.61184,-1.23158 -1.57534,-1.30742 0.46042,-5.55608 2.66221,-5.55608 0.55501,0 2.47507,0.41119 4.26681,0.91375 2.6962,0.75626 6.88883,0.9378 24.32484,1.05327 l 21.06714,0.13952 -20.50535,-0.42083 c -11.27794,-0.23146 -21.27096,-0.67172 -22.20671,-0.97836 -0.93575,-0.30664 -2.75852,-1.09685 -4.0506,-1.75602 -4.19274,-2.13898 -5.24652,-1.51599 -7.50943,4.43951 -1.49489,3.93424 -1.00427,4.44313 4.22496,4.38224 2.97388,-0.0346 4.77331,0.26593 6.70326,1.11964 3.87202,1.71278 7.2923,4.34786 8.83762,6.80874 1.52832,2.43383 1.94524,2.58605 1.1171,0.40788 z m 58.60523,-18.91992 c 6.65355,-0.49917 7.3154,-0.85355 6.81692,-3.65001 -0.43389,-2.43413 -5.88945,-13.54893 -7.30139,-14.87538 -1.09159,-1.0255 -2.46036,-1.18085 -15.49255,-1.75839 -7.86234,-0.34843 -22.06879,-0.52471 -31.56986,-0.39173 l -17.27469,0.24178 -1.67116,1.60107 c -2.32472,2.22722 -7.36278,12.3873 -7.72177,15.5722 -0.2641,2.34314 -0.1678,2.62206 1.03937,3.01015 3.74055,1.20255 58.00817,1.38819 73.17513,0.25031 z"
     id="path4122"
     inkscape:connector-curvature="0"
     transform="scale(0.8,0.8)" />
  <path
     style="fill:#000000"
     d="m 132.01114,187.87471 c -0.69971,-0.28111 -1.55783,-1.2131 -1.90693,-2.07111 -0.79106,-1.94421 -0.86582,-20.16567 -0.14015,-34.15693 l 0.52516,-10.12531 2.61967,-4.09457 c 1.44082,-2.25201 5.94207,-10.63365 10.00278,-18.62586 4.06072,-7.99221 7.96233,-15.15627 8.67025,-15.92014 2.46237,-2.65694 5.49688,-2.907794 34.8715,-2.882746 32.28805,0.02754 32.37569,0.03841 35.25333,4.372426 1.07248,1.61528 4.4974,7.98645 7.61092,14.15816 3.11353,6.17172 7.24965,13.86782 9.19138,17.10245 l 3.5304,5.88114 0.32484,8.44451 c 0.22309,5.79962 0.57769,8.88441 1.13214,9.84899 1.08547,1.88839 1.15211,22.29792 0.0828,25.36297 -0.93607,2.68318 -2.9059,3.49123 -7.75766,3.1823 -4.73586,-0.30156 -5.82941,-1.39991 -5.82941,-5.85499 l 0,-3.02762 -43.25785,0 -43.25786,0 0,1.88244 c 0,3.26055 -1.09866,5.46776 -3.14783,6.32396 -2.09328,0.87462 -6.57615,0.97985 -8.51749,0.19993 z m 109.13283,-1.6598 c 0.77717,-1.25749 -1.34026,-42.67136 -2.31107,-45.20125 -0.57592,-1.50083 -1.19288,-0.42972 -1.59187,2.76366 -0.626,5.01031 -3.20202,6.18774 -15.01661,6.86373 l -6.03966,0.34556 -2.26583,-2.26584 c -1.38524,-1.38523 -2.26584,-2.78877 -2.26584,-3.6114 0,-3.74616 6.39663,-8.60689 13.51043,-10.26642 3.51802,-0.8207 3.63983,-0.80951 6.84493,0.62886 1.79476,0.80543 3.40348,1.32412 3.57496,1.15265 0.34508,-0.34508 -3.80532,-8.14535 -5.34712,-10.0494 -0.94267,-1.16414 -1.13013,-1.18175 -5.44134,-0.51109 -2.45577,0.38203 -9.26139,1.01958 -15.12359,1.41678 l -10.65855,0.72218 13.20207,0.11291 c 16.18394,0.13841 17.9273,0.35653 19.06509,2.38538 0.4667,0.83219 0.65325,1.70836 0.41456,1.94705 -0.23869,0.23869 -2.18501,0.59448 -4.32516,0.79065 -5.08664,0.46624 -10.18524,2.95123 -13.64567,6.65071 -4.11696,4.40137 -4.07997,7.17302 0.13363,10.01257 1.64963,1.11168 2.60498,1.27667 7.39255,1.27667 5.9009,0 12.8893,-1.19753 14.97908,-2.56681 1.01626,-0.66588 1.34324,-0.69137 1.55558,-0.12128 1.01861,2.73482 1.48781,8.12858 1.77656,20.42243 0.37366,15.90921 0.17461,17.14118 -2.54243,15.73614 -0.85652,-0.44292 -2.49907,-2.22373 -3.65013,-3.95734 -1.15106,-1.73362 -2.77904,-3.4438 -3.61774,-3.8004 -0.96709,-0.41119 -6.55967,-0.71697 -15.28876,-0.8359 -7.57012,-0.10314 -14.3908,-0.32671 -15.15706,-0.49682 -1.21236,-0.26914 -0.80917,-0.6136 3.10616,-2.65377 7.6252,-3.97328 13.27398,-8.73381 14.05477,-11.84472 0.73989,-2.94796 -3.56287,-7.63437 -7.00938,-7.63437 -0.99528,0 -3.75229,0.90835 -6.12666,2.01854 -6.18714,2.89296 -8.34438,3.60545 -12.46302,4.11628 -6.85508,0.85022 -12.18922,-0.32433 -22.15621,-4.87865 l -5.5834,-2.55128 -3.5457,3.74253 c -4.10099,4.32865 -4.36491,5.55912 -1.71987,8.01841 3.9456,3.66851 14.11984,10.32041 15.78531,10.32041 1.16522,0 -1.21364,-1.89934 -4.37544,-3.49347 -7.51835,-3.79062 -13.06108,-8.44637 -12.42846,-10.43959 0.45306,-1.42746 5.62771,-6.29139 6.6933,-6.29139 0.44395,0 3.86303,1.4813 7.59796,3.29179 7.9902,3.87322 11.82276,4.81779 18.07853,4.45565 4.27792,-0.24765 5.0166,-0.49549 11.95502,-4.01118 4.06745,-2.06097 8.00331,-3.74476 8.74637,-3.74174 0.84312,0.003 2.1631,0.85916 3.51119,2.2763 4.28459,4.50403 2.68161,7.14217 -8.50566,13.99838 l -5.89061,3.61012 -5.62609,0.42189 c -6.64603,0.49837 -5.90698,0.37711 -5.90698,0.96924 0,0.72151 5.16822,1.10539 24.43788,1.81517 9.57852,0.35281 17.84932,0.86891 18.37955,1.14687 0.53023,0.27797 1.22875,1.48838 1.55226,2.68982 0.89675,3.33029 2.16396,4.52925 5.34875,5.06067 1.54493,0.25778 2.98364,0.49844 3.19714,0.53478 0.2135,0.0363 0.54303,-0.18446 0.73228,-0.49067 z m -101.32886,-0.90962 c 0.55509,-0.15231 1.05087,-1.10747 1.26282,-2.43293 0.19192,-1.20019 0.49498,-2.64668 0.67347,-3.21442 0.27162,-0.86394 0.21376,-0.84905 -0.35488,0.0913 -1.39027,2.2992 -3.58772,4.21343 -4.83684,4.21343 -0.92655,0 -1.41007,-0.43413 -1.72071,-1.54493 -0.5133,-1.83545 -0.5893,-34.15943 -0.0815,-34.66683 0.1928,-0.19265 1.23632,0.17235 2.31894,0.81111 4.48072,2.64369 17.15703,3.75368 21.77342,1.90656 2.16936,-0.868 3.36572,-2.15578 3.36572,-3.62291 0,-0.37096 -0.49873,-0.0404 -1.1083,0.7345 -2.55253,3.24501 -7.99408,4.02925 -16.9151,2.43779 -5.0485,-0.90062 -7.35541,-1.99019 -9.04107,-4.27017 -0.83925,-1.13514 -1.42674,-1.49526 -1.81155,-1.11045 -0.35516,0.35516 -0.65783,8.3041 -0.80419,21.12017 l -0.23468,20.55066 3.30029,-0.37609 c 1.81517,-0.20684 3.71155,-0.48892 4.21417,-0.62683 z m 26.89476,-8.36655 c 20.39669,-0.53785 23.02728,-1.03713 13.26281,-2.51726 -3.62331,-0.54924 -4.54218,-0.52518 -5.57063,0.14583 -0.87633,0.57176 -4.8001,1.00227 -13.60263,1.49244 -6.80406,0.3789 -13.25061,0.91339 -14.32565,1.18776 -1.38177,0.35266 -0.39046,0.42502 3.38239,0.24689 2.93535,-0.13858 10.51952,-0.38863 16.85371,-0.55566 z m 32.95566,-6.43526 c 4.18495,-1.47131 8.6758,-4.11529 12.57645,-7.40436 l 2.89865,-2.44418 -2.64081,-2.39088 c -1.45244,-1.31497 -2.96079,-2.39087 -3.35188,-2.39087 -0.3911,0 -1.69388,0.78394 -2.89506,1.74208 -4.2899,3.42193 -11.5612,6.32337 -17.54304,7.00014 -4.74273,0.53658 -8.97531,-0.53608 -16.96792,-4.30016 -3.87554,-1.82516 -7.52918,-3.31848 -8.11921,-3.31848 -1.19488,0 -4.77791,3.20647 -4.77791,4.27579 0,1.58464 8.97497,6.9112 14.92968,8.86062 5.11597,1.67484 7.71462,1.98112 15.1261,1.78277 5.68146,-0.15205 8.072,-0.46571 10.76495,-1.41247 z m -41.90738,-22.51512 c 1.62975,-0.87222 1.4334,-3.97627 -0.38849,-6.14146 -2.37165,-2.81854 -8.87167,-5.61692 -13.07795,-5.63029 -1.50442,-0.005 -2.3684,0.47285 -4.04679,2.23721 -2.71282,2.85177 -3.40139,5.78001 -1.74795,7.43345 1.85954,1.85954 16.68974,3.47728 19.26118,2.10109 z m 73.4189,-0.62453 c 4.13339,-0.78388 5.08949,-2.93888 3.13307,-7.06174 -1.342,-2.82805 -3.79116,-4.21187 -6.9269,-3.91381 -6.30003,0.59882 -13.48297,5.25578 -13.48297,8.74148 0,1.9174 0.80181,2.69757 3.08985,3.0065 2.44745,0.33044 10.75724,-0.12199 14.18695,-0.77243 z m -69.75218,-4.87304 c -2.24781,-4.34677 -8.40437,-8.24489 -14.34875,-9.08513 -5.18691,-0.73316 -6.30478,-2.23443 -3.92067,-5.26533 1.34684,-1.71224 2.10093,-1.78608 6.51043,-0.63755 1.77941,0.46347 4.76221,0.80836 6.62845,0.7664 l 3.39316,-0.0763 -3.95864,-0.4181 c -2.46442,-0.26029 -5.05501,-0.97368 -6.86326,-1.88999 -1.59754,-0.80953 -3.38956,-1.47188 -3.98226,-1.47188 -1.27301,0 -2.46274,1.6777 -4.05576,5.71922 -1.08182,2.74462 -1.0966,2.99413 -0.21539,3.63849 0.54118,0.39572 2.56223,0.67658 4.72233,0.65626 2.66091,-0.025 4.5536,0.30832 6.40814,1.12867 3.73305,1.65131 7.51837,4.50023 8.85679,6.66583 1.40096,2.26681 1.95119,2.44639 0.82543,0.26939 z m 17.22304,-14.00257 c -3.16709,-0.10013 -8.34961,-0.10013 -11.5167,0 -3.16709,0.10014 -0.57584,0.18207 5.75835,0.18207 6.33419,0 8.92544,-0.0819 5.75835,-0.18207 z m 40.51442,-4.60782 c 8.07539,-0.58302 8.77563,-1.00505 7.69859,-4.63982 -1.11823,-3.7738 -6.22156,-13.34238 -7.59656,-14.24332 -1.79371,-1.17529 -26.85968,-2.12558 -47.47116,-1.79972 l -16.5456,0.26158 -1.90249,2.1905 c -2.52363,2.90566 -6.93638,12.03948 -7.27715,15.06274 -0.22223,1.97165 -0.0817,2.48876 0.77526,2.85357 2.54191,1.08207 58.3273,1.32464 72.31911,0.31447 z"
     id="path4124"
     inkscape:connector-curvature="0"
     transform="scale(0.8,0.8)" />
  <path
     style="fill:#000000"
     d=""
     id="path4126"
     inkscape:connector-curvature="0"
     transform="scale(0.8,0.8)" />
  <path
     style="fill:#000000"
     d="m 132.01114,187.87471 c -0.69971,-0.28111 -1.55783,-1.2131 -1.90693,-2.07111 -0.80949,-1.98952 -0.88075,-20.54424 -0.13113,-34.14384 l 0.5574,-10.11222 3.20199,-5.28055 c 1.76109,-2.9043 6.24854,-11.28695 9.97211,-18.62812 3.72357,-7.34116 7.35386,-13.97742 8.0673,-14.74724 2.4739,-2.66938 5.47886,-2.918658 34.88154,-2.893586 19.58907,0.01671 27.83696,0.217076 30.14994,0.732456 3.04226,0.67788 3.28276,0.86441 5.40297,4.19043 1.22044,1.91454 4.77081,8.47703 7.88972,14.58332 3.11891,6.10629 7.12223,13.53466 8.89628,16.50749 l 3.22553,5.40515 0.35024,8.49218 c 0.2349,5.69592 0.61125,8.95464 1.14294,9.89665 1.07131,1.89811 1.12626,22.33012 0.0682,25.36297 -0.93607,2.68318 -2.9059,3.49123 -7.75766,3.1823 -4.73586,-0.30156 -5.82941,-1.39991 -5.82941,-5.85499 l 0,-3.02762 -43.25785,0 -43.25786,0 0,2.27506 c 0,3.07771 -1.27512,5.33708 -3.4375,6.09089 -2.11752,0.73817 -6.43814,0.75938 -8.22782,0.0404 l 0,-1e-5 z m 109.12881,-1.6533 c 0.41604,-0.67315 -0.62464,-27.97959 -1.43355,-37.61534 -0.79072,-9.4191 -1.61414,-10.90138 -2.47463,-4.45473 -0.20133,1.50837 -0.80674,3.01936 -1.43902,3.59157 -1.67305,1.51409 -6.34968,2.51833 -13.46944,2.89236 l -6.46439,0.3396 -2.10291,-2.32768 c -1.1566,-1.28022 -2.10292,-2.90271 -2.10292,-3.60553 0,-3.59588 6.2033,-8.36364 13.24251,-10.17799 3.37923,-0.871 6.08122,-0.62913 7.73863,0.69271 0.35628,0.28415 1.23015,0.69531 1.94193,0.9137 1.23012,0.37742 1.18464,0.17934 -0.91923,-4.00422 -1.21735,-2.42071 -2.70466,-5.00771 -3.30515,-5.74889 -1.07962,-1.33257 -1.1414,-1.33995 -5.54137,-0.66215 -2.44726,0.377 -8.87367,1.0143 -14.2809,1.41623 l -9.83133,0.73078 12.35939,0.11346 c 15.31533,0.14059 17.09378,0.37345 18.2224,2.38593 0.4667,0.83219 0.65875,1.70287 0.42677,1.93484 -0.23197,0.23197 -2.16265,0.60778 -4.2904,0.83513 -5.05544,0.54017 -9.66909,2.75641 -13.30813,6.39276 -4.50276,4.49944 -4.51408,7.6862 -0.037,10.41606 3.27443,1.99654 16.74935,1.1441 21.80828,-1.37963 1.25298,-0.62507 1.73615,-0.66557 1.92358,-0.16126 0.9995,2.68936 1.47099,8.15357 1.75801,20.37409 0.37366,15.90921 0.17461,17.14118 -2.54243,15.73614 -0.85652,-0.44292 -2.49907,-2.22373 -3.65013,-3.95734 -1.15106,-1.73362 -2.77904,-3.43183 -3.61773,-3.7738 -0.91175,-0.37176 -7.05925,-0.71173 -15.28876,-0.84553 -7.57013,-0.12307 -14.38184,-0.35636 -15.13715,-0.51842 -1.17866,-0.2529 -0.70837,-0.64992 3.31869,-2.80162 7.88246,-4.21169 13.04439,-8.59269 13.83475,-11.74174 0.70653,-2.81506 -3.71691,-7.59349 -7.01504,-7.57801 -0.80401,0.004 -3.48429,0.90636 -5.95616,2.00576 -6.78599,3.01814 -8.65626,3.62807 -12.64029,4.1222 -6.84435,0.84888 -12.19265,-0.32594 -22.10717,-4.85617 l -5.53435,-2.5288 -2.70051,2.6599 c -1.48528,1.46295 -3.157,3.50754 -3.71492,4.54355 -0.98964,1.83765 -0.98638,1.92173 0.13355,3.44263 2.12401,2.8845 15.99373,12.09175 16.87993,11.20554 0.34284,-0.34283 -2.52499,-2.21866 -7.73591,-5.06002 -4.14665,-2.26103 -9.48985,-6.7842 -9.48985,-8.03341 0,-1.14178 4.98052,-6.34408 6.41936,-6.70521 0.75556,-0.18963 3.5376,0.82897 7.63724,2.79626 7.44828,3.5742 11.75265,4.82776 16.57704,4.82776 4.57076,0 8.35114,-1.19548 15.29345,-4.83628 3.17642,-1.66583 6.44248,-3.02878 7.25793,-3.02878 1.00148,0 2.18362,0.73691 3.64279,2.27082 4.28682,4.50638 2.7569,7.03163 -8.47052,13.98137 -6.10174,3.77695 -6.58512,3.97256 -9.83133,3.97845 -4.13828,0.007 -7.69858,0.54788 -7.34791,1.11527 0.3944,0.63815 6.31993,1.05515 24.72009,1.73965 9.26954,0.34484 17.275,0.85098 17.78992,1.12475 0.51491,0.27377 1.35765,1.76661 1.87274,3.31742 1.01928,3.06875 2.09227,3.93466 5.6179,4.53368 1.23594,0.20998 2.42185,0.41344 2.63535,0.45211 0.2135,0.0387 0.54122,-0.17729 0.72826,-0.47993 z m -101.04951,-1.34522 c 0.34507,-0.34792 0.89209,-1.72706 1.2156,-3.06474 l 0.58819,-2.43215 -1.96161,2.2917 c -2.39978,2.8036 -4.43501,3.10199 -5.09365,0.74678 -0.5133,-1.83545 -0.5893,-34.15943 -0.0815,-34.66683 0.1928,-0.19265 1.20402,0.14711 2.24716,0.75502 4.01414,2.33932 15.88608,3.66233 20.74678,2.31201 2.05397,-0.57059 4.46414,-2.41704 4.46414,-3.42 0,-0.31151 -1.03995,0.26715 -2.311,1.28591 l -2.31101,1.85229 -6.53719,-0.0472 c -8.0955,-0.0585 -12.35728,-1.16621 -15.12156,-3.93048 -1.05661,-1.05662 -2.10979,-1.92112 -2.34039,-1.92112 -0.64491,0 -1.15374,12.17545 -1.15374,27.60732 l 0,13.94794 3.51119,-0.34193 c 1.93116,-0.18806 3.79353,-0.62659 4.1386,-0.97452 z m 25.21495,-7.9275 c 13.15128,-0.33021 20.75721,-0.78645 20.3245,-1.21916 -0.14542,-0.14542 -2.34004,-0.62677 -4.87693,-1.06965 -3.97909,-0.69465 -4.85503,-0.69619 -6.37841,-0.0112 -1.14308,0.51399 -6.01972,1.03735 -13.82701,1.4839 -6.63361,0.37942 -12.70095,0.90275 -13.48296,1.16297 -0.94098,0.31311 -0.18686,0.38694 2.22978,0.21829 2.00841,-0.14015 9.21337,-0.39447 16.01103,-0.56515 l 0,-2e-5 z m 30.75562,-5.60618 c 5.12446,-1.08594 10.23734,-3.62117 15.07333,-7.47412 l 4.02494,-3.20676 -2.72084,-2.39422 c -1.49647,-1.31682 -3.00901,-2.39422 -3.36122,-2.39422 -0.35221,0 -1.62316,0.78422 -2.82434,1.74271 -4.43395,3.53811 -11.29876,6.25998 -17.67973,7.00994 -4.53143,0.53258 -8.86606,-0.57429 -16.90035,-4.31559 -3.91356,-1.82242 -7.50724,-3.31348 -7.98596,-3.31348 -1.12953,0 -4.84204,3.25911 -4.84204,4.25069 0,1.36216 8.43064,6.58229 13.70923,8.48855 6.53903,2.36145 16.67548,3.05419 23.50698,1.6065 z m -37.75361,-23.9164 c 0.28611,-0.45236 0.52407,-1.55682 0.5288,-2.45437 0.0177,-3.35067 -6.64766,-7.67022 -13.22718,-8.57205 -2.98395,-0.40899 -5.33598,1.06562 -7.04598,4.41749 -1.49843,2.93717 -1.0599,4.76905 1.38634,5.79115 4.41057,1.84286 17.34524,2.41904 18.35802,0.81778 z m 74.69373,-0.51944 c 2.59818,-1.39137 2.91694,-3.24833 1.1516,-6.70868 -1.43153,-2.80603 -4.31328,-4.23064 -7.57,-3.74226 -2.33713,0.35048 -8.21474,2.93884 -9.8993,4.35943 -2.51819,2.12358 -3.47094,5.13247 -2.08094,6.57186 0.96653,1.00088 16.38431,0.59835 18.39864,-0.48035 z m -71.56754,-4.376 c -2.19322,-4.17897 -8.44536,-8.12884 -14.37969,-9.08453 -5.2412,-0.84407 -6.27462,-2.28501 -3.84971,-5.36777 1.3021,-1.65536 1.61576,-1.66871 7.77555,-0.3309 1.39043,0.30198 3.79208,0.52684 5.337,0.49969 2.75592,-0.0484 2.74001,-0.0577 -0.84268,-0.4895 -2.0084,-0.24207 -5.10334,-1.11131 -6.87764,-1.93165 -1.77431,-0.82033 -3.68107,-1.34709 -4.23726,-1.17056 -1.19527,0.37936 -4.05344,5.93434 -4.05344,7.87803 0,1.60678 1.51721,2.25366 4.13427,1.7627 4.27662,-0.8023 12.7042,3.15905 15.72569,7.3918 1.96226,2.7489 2.43227,3.06128 1.26791,0.84269 z m 12.72,-14.01989 c -0.69522,-0.13391 -1.83284,-0.13391 -2.52806,0 -0.69521,0.1339 -0.1264,0.24346 1.26403,0.24346 1.39043,0 1.95924,-0.10956 1.26403,-0.24346 z m 45.03311,-4.64245 c 8.43242,-0.65281 8.86953,-0.96892 7.38378,-5.33995 -1.69975,-5.00055 -6.14737,-12.85372 -7.71663,-13.62524 -2.15515,-1.05956 -28.76443,-2.01469 -47.24688,-1.69591 -14.78751,0.25506 -16.26943,0.36886 -17.33267,1.33108 -2.8195,2.55161 -8.35068,14.03297 -8.35068,17.33393 0,2.28363 0.57184,2.32053 37.63996,2.42924 15.91271,0.0467 31.94311,-0.14825 35.62312,-0.43315 z"
     id="path4128"
     inkscape:connector-curvature="0"
     transform="scale(0.8,0.8)" />
  <path
     style="fill:#000000"
     d="m 134.01748,188.56263 c -2.1111,-0.23178 -3.73177,-1.39398 -4.15158,-2.97716 -1.08287,-4.08371 -1.37138,-22.90208 -0.39015,-25.44797 0.20417,-0.52973 0.4058,-4.21206 0.74202,-13.55091 0.20149,-5.59659 0.1548,-5.43235 2.51037,-8.83083 1.99665,-2.88065 4.56189,-7.6585 10.13091,-18.86917 4.86843,-9.80036 7.78064,-15.15918 8.87626,-16.3334 0.93316,-1.00011 2.78174,-1.61503 7.30865,-2.43116 3.75765,-0.677444 16.71454,-0.922385 33.34818,-0.630421 17.34806,0.304504 23.43952,0.637151 26.338,1.438301 2.13229,0.58937 4.61085,4.59963 11.77337,19.0491 4.41474,8.90617 6.84809,13.40275 9.19006,16.98226 1.56107,2.38598 2.27449,3.76222 2.62552,5.06488 0.10303,0.38235 0.2557,3.68942 0.33926,7.34905 0.15807,6.92319 0.37084,8.97779 1.04505,10.09154 0.65956,1.08956 0.94005,3.71876 1.07415,10.06868 0.194,9.18582 -0.32289,15.56142 -1.39266,17.17795 -1.0497,1.5862 -3.81987,2.23592 -7.82603,1.83553 -2.76397,-0.27624 -4.13497,-0.83893 -4.85141,-1.99115 -0.41287,-0.66399 -0.46376,-1.01922 -0.52506,-3.66494 l -0.0679,-2.92969 -43.15251,0 -43.1525,0 -0.11401,2.16122 c -0.0627,1.18867 -0.22452,2.53005 -0.35958,2.98085 -0.33955,1.13331 -1.37443,2.27179 -2.50697,2.75795 -1.54165,0.66178 -4.44205,0.95963 -6.81147,0.69949 z m 107.09954,-2.39254 c 0.10904,-0.43003 -0.33581,-17.23525 -0.63487,-23.98372 -0.44645,-10.07444 -1.12556,-18.557 -1.65789,-20.70835 -0.24459,-0.98845 -0.76322,-1.34615 -1.01933,-0.70301 -0.0783,0.19654 -0.25648,1.49111 -0.39604,2.87683 -0.28294,2.80938 -0.60709,3.67219 -1.71711,4.5706 -1.82078,1.47369 -7.35252,2.44122 -15.37266,2.68878 -3.20126,0.0988 -3.96326,0.16902 -3.27728,0.30197 1.56082,0.30249 9.15489,0.0286 11.81806,-0.4262 4.27824,-0.73064 7.11925,-1.65643 8.00685,-2.60917 0.56518,-0.60664 0.88724,-0.32084 1.29715,1.15111 1.15007,4.12979 1.91701,14.11915 1.91776,24.97865 7.9e-4,10.63716 -0.42842,12.1135 -3.12415,10.74747 -1.24363,-0.63019 -2.12645,-1.61777 -3.93171,-4.39826 -1.57399,-2.4243 -2.34589,-3.15545 -3.79019,-3.59012 -1.47528,-0.444 -6.45102,-0.67388 -18.84763,-0.87077 -6.33607,-0.10063 -11.78827,-0.26144 -12.116,-0.35736 -1.06577,-0.31192 -0.92052,-0.41864 3.27728,-2.40792 8.29664,-3.93168 14.88363,-9.70299 14.89416,-13.04978 0.006,-1.8766 -2.16758,-4.74582 -4.56164,-6.02184 -2.20144,-1.17336 -3.38808,-0.9572 -8.79885,1.60277 -4.2348,2.00359 -6.39566,2.83563 -8.93885,3.44191 -5.22445,1.24548 -9.71862,1.15885 -15.15555,-0.29212 -2.81273,-0.75064 -4.94678,-1.59441 -10.31136,-4.07693 -2.29409,-1.06161 -4.47035,-2.05911 -4.83613,-2.21666 l -0.66505,-0.28645 -2.28156,2.24533 c -3.53991,3.48371 -5.066,5.74627 -4.74323,7.03227 0.43032,1.71453 7.54389,7.21777 13.91633,10.76604 2.78223,1.54918 3.67452,1.92943 3.67452,1.56587 0,-0.59845 -2.40487,-2.18663 -5.46212,-3.60719 -4.54633,-2.11245 -9.96764,-6.10021 -11.44227,-8.41659 -0.45912,-0.72119 -0.51678,-0.95048 -0.34966,-1.39036 0.49203,-1.29505 3.82012,-4.93909 5.67876,-6.21787 0.74405,-0.51192 1.02098,-0.59482 1.68803,-0.50535 0.45685,0.0613 3.1016,1.25272 6.18676,2.7871 7.43737,3.6989 10.0849,4.62837 14.55719,5.11059 5.98585,0.64543 10.93985,-0.7165 18.14226,-4.98757 5.86405,-3.47742 7.9588,-3.62911 10.74828,-0.77833 2.14254,2.18961 2.87058,4.57097 1.94947,6.37651 -1.00425,1.9685 -2.65392,3.26935 -9.42048,7.42858 -2.62182,1.61157 -5.2365,3.21981 -5.81041,3.57387 -1.25472,0.77407 -1.64908,0.83877 -6.60352,1.08326 -3.96087,0.19546 -4.98403,0.31261 -5.63242,0.64487 -0.58652,0.30056 -0.13913,0.52518 1.46718,0.73663 3.29932,0.43432 16.46426,1.03029 30.97933,1.40242 4.53357,0.11623 8.52427,0.25538 8.86823,0.30922 1.27982,0.20033 2.16212,1.36281 2.85136,3.75685 0.52512,1.82395 0.87213,2.52739 1.5931,3.22942 0.9222,0.89797 1.95543,1.23632 4.68252,1.53337 1.3,0.1416 2.42025,0.26865 2.48944,0.28234 0.0692,0.0137 0.16546,-0.13154 0.21394,-0.32271 z m -103.2264,-0.65645 c 0.97098,-0.11436 1.77666,-0.3267 2.07151,-0.54597 0.56104,-0.41722 0.97052,-1.42457 0.99204,-2.44054 0.008,-0.3923 0.1459,-1.14786 0.30576,-1.67903 0.37464,-1.24482 0.25027,-1.35093 -0.30323,-0.2587 -1.10679,2.18406 -2.78099,3.5448 -4.36139,3.5448 -1.5466,0 -1.99544,-0.7954 -2.40976,-4.27039 -0.32731,-2.74517 -0.3326,-26.86396 -0.006,-29.53532 0.2512,-2.05768 0.538,-2.93952 0.95602,-2.93952 0.14265,0 0.80372,0.35184 1.46905,0.78186 2.74721,1.77561 7.88652,2.91363 14.09767,3.1217 4.12314,0.13813 6.456,-0.17747 8.59636,-1.16295 1.44147,-0.66369 2.72514,-1.86814 2.72514,-2.55696 0,-0.40388 -0.01,-0.403 -0.564,0.0502 -0.3102,0.25371 -1.04759,0.85469 -1.63864,1.33551 -0.59105,0.48082 -1.56622,1.10648 -2.16706,1.39036 -1.06728,0.50427 -1.18613,0.51601 -5.16419,0.50991 -6.21278,-0.01 -11.45779,-0.84275 -14.28335,-2.26909 -1.40721,-0.71036 -2.76444,-1.88363 -3.62375,-3.1326 -0.67417,-0.97987 -1.08161,-1.07911 -1.24181,-0.30248 -0.4347,2.10737 -0.9011,19.35515 -0.90833,33.59089 l -0.004,7.2237 1.93657,-0.13414 c 1.06511,-0.0738 2.65161,-0.21834 3.52555,-0.32127 z m 11.52013,-8.13314 c 1.09243,-0.10174 6.90215,-0.32149 12.91049,-0.48834 13.11876,-0.36431 21.38269,-0.67183 22.39473,-0.83337 0.40966,-0.0654 0.74484,-0.19685 0.74484,-0.29213 0,-0.0953 -0.0224,-0.17359 -0.0497,-0.174 -0.0273,-4e-4 -1.39036,-0.27052 -3.029,-0.60022 -3.67252,-0.73893 -6.96501,-0.96982 -7.54511,-0.52912 -0.3805,0.28906 -0.36979,0.30648 0.29794,0.48453 l 0.69262,0.1847 -0.59587,0.12791 c -0.7326,0.15727 -7.87108,0.61695 -16.08846,1.03601 -7.04409,0.35923 -11.86151,0.77577 -12.36517,1.06915 -0.30109,0.17539 -0.28139,0.20181 0.14987,0.2009 0.2731,-5.9e-4 1.39036,-0.0843 2.48278,-0.18602 z m 43.27773,-5.57354 c 6.50823,-0.57092 13.17958,-3.50947 18.69261,-8.2336 0.98318,-0.84249 2.14088,-1.85051 2.57265,-2.24004 l 0.78504,-0.70823 -2.10939,-2.00965 c -1.16016,-1.1053 -2.41962,-2.17672 -2.79881,-2.38092 -0.90082,-0.48513 -1.48937,-0.25203 -3.02132,1.19662 -2.56452,2.42506 -6.94226,4.62774 -12.2118,6.14441 -3.52859,1.0156 -6.16333,1.36322 -9.33528,1.23168 -4.42737,-0.1836 -6.71728,-0.93895 -14.43699,-4.76214 -4.25661,-2.1081 -6.26848,-2.9236 -7.21258,-2.9236 -0.69443,0 -2.05636,0.90785 -3.31615,2.2105 -1.15029,1.18944 -1.51148,1.90211 -1.22418,2.41547 0.27458,0.49066 3.0457,2.5527 5.17298,3.84931 5.50609,3.35605 11.61858,5.52831 17.44171,6.19846 2.14553,0.24692 8.24632,0.25342 11.00151,0.0117 l 0,1e-5 z m 22.66507,-21.29795 c -1.21496,-0.88308 -3.01233,-2.85248 -3.48196,-3.81522 -0.93053,-1.90758 -0.44191,-3.5656 1.72893,-5.86681 1.92805,-2.04383 5.0667,-4.04858 8.06155,-5.14915 2.83955,-1.0435 4.80724,-1.48072 6.70128,-1.48902 l 1.88691,-0.008 2.36231,1.24139 c 2.35125,1.23559 2.9012,1.43116 2.9012,1.03173 0,-0.39634 -3.55964,-7.26319 -4.55738,-8.79157 -0.69437,-1.06367 -1.21252,-1.63161 -1.70114,-1.86462 -0.66903,-0.31904 -0.80452,-0.31433 -2.83315,0.0984 -2.35697,0.47956 -5.65088,0.91589 -9.28095,1.2294 -3.63023,0.31353 -11.54996,0.79692 -13.07117,0.79782 -0.95233,6e-4 -1.31151,0.067 -1.21411,0.2246 0.10096,0.16336 2.07562,0.18746 7.31111,0.0892 7.33816,-0.13768 16.03509,0.0916 18.39499,0.48501 2.20981,0.36836 2.6064,0.66235 3.15921,2.34192 0.66677,2.02581 0.65079,2.03751 -3.20598,2.34641 -2.0949,0.16779 -3.57821,0.40346 -4.79971,0.7626 -7.28665,2.14239 -13.8905,8.48674 -12.85124,12.34625 0.38173,1.41763 2.14588,3.26137 3.89343,4.06908 1.05979,0.48984 1.32946,0.45398 0.59587,-0.0792 z m -57.87767,-2.59885 c 0.94758,-0.45063 1.27244,-1.11823 1.25947,-2.58822 -0.0185,-2.09455 -1.06917,-3.59452 -3.78252,-5.39991 -2.01779,-1.34259 -4.32167,-2.30599 -7.39931,-3.09411 -3.73279,-0.95589 -5.21018,-0.6126 -7.32583,1.70227 -1.87171,2.04794 -2.81394,4.29744 -2.45995,5.87293 0.47263,2.10354 2.32366,2.77485 9.55747,3.46617 1.8025,0.17226 3.54542,0.35026 3.87315,0.39555 0.32773,0.0453 1.71312,0.0606 3.07865,0.0341 1.85596,-0.0361 2.66358,-0.13422 3.19887,-0.38879 z m 71.97989,-0.31585 c 4.89776,-0.67368 5.99117,-1.63477 5.50307,-4.83713 -0.50681,-3.32513 -2.80899,-5.78934 -5.87485,-6.28833 -2.1281,-0.34635 -5.19921,0.45621 -9.19534,2.40299 -3.98015,1.939 -6.55766,5.20821 -5.8343,7.4 0.28722,0.87028 0.82218,1.34049 1.74675,1.53531 1.03982,0.2191 11.72524,0.0525 13.65467,-0.21284 z m -67.73733,-4.32433 c -0.57079,-1.3661 -1.4863,-2.58287 -3.12956,-4.15937 -3.42101,-3.28204 -7.98839,-5.37681 -12.47228,-5.72024 -3.03104,-0.23216 -4.15421,-0.94552 -4.15421,-2.63848 0,-1.05244 0.99564,-3.24075 1.74136,-3.82733 0.99002,-0.77875 1.41206,-0.74577 6.03465,0.47159 1.99445,0.52523 6.16974,1.00816 7.71658,0.89253 0.59071,-0.0442 0.008,-0.15289 -1.71751,-0.32064 -3.41542,-0.33199 -4.32426,-0.58705 -7.58836,-2.12968 -1.50244,-0.71006 -2.96594,-1.29102 -3.25223,-1.29102 -0.93036,0 -1.69519,0.91028 -3.02239,3.59718 -1.48735,3.01109 -1.85759,4.28153 -1.49962,5.14575 0.34375,0.82989 1.15868,0.99713 4.15929,0.85361 2.00171,-0.0958 2.83418,-0.0493 4.09201,0.22839 5.16986,1.14128 10.46657,4.73219 12.62721,8.56063 0.7073,1.25325 0.90893,1.3994 0.46506,0.33708 z m 11.77091,-14.69652 c -0.4121,-0.043 -1.03776,-0.0423 -1.39036,0.002 -0.35261,0.0439 -0.0154,0.0791 0.74926,0.0782 0.7647,-8e-4 1.05319,-0.0368 0.6411,-0.0798 l 0,1e-5 z m 43.75112,-4.60181 c 4.23807,-0.25247 7.13666,-0.54442 8.17439,-0.82334 1.84851,-0.49684 2.11396,-1.52477 1.14688,-4.44122 -1.33077,-4.01325 -6.12614,-12.8983 -7.40182,-13.71439 -1.47882,-0.94604 -12.59026,-1.46186 -35.08948,-1.62894 -15.64243,-0.11615 -25.60537,0.0716 -28.01095,0.52777 -0.8513,0.16145 -1.26395,0.38239 -1.95232,1.04533 -2.88291,2.77641 -7.71068,12.64204 -8.1034,16.55943 -0.11353,1.13246 -0.0885,1.24137 0.35132,1.52844 0.66466,0.43382 2.46358,0.67764 6.8295,0.92564 5.82363,0.33081 6.4675,0.33619 34.26244,0.28669 16.08158,-0.0286 27.53101,-0.13063 29.79344,-0.26541 z"
     id="path4150"
     inkscape:connector-curvature="0"
     transform="scale(0.8,0.8)" />

</svg>
