<?xml version="1.0" standalone="no"?>
<!DOCTYPE svg PUBLIC "-//W3C//DTD SVG 20010904//EN"
 "http://www.w3.org/TR/2001/REC-SVG-20010904/DTD/svg10.dtd">
<svg version="1.0" xmlns="http://www.w3.org/2000/svg"
 width="300.000000pt" height="111.000000pt" viewBox="0 0 300.000000 111.000000"
 preserveAspectRatio="xMidYMid meet">
<metadata>
Created by potrace 1.10, written by Peter Selinger 2001-2011
</metadata>
<g transform="translate(0.000000,111.000000) scale(0.100000,-0.100000)"
fill="#eb2578" stroke="none">
<path d="M747 1103 c414 -2 1092 -2 1505 0 414 1 76 2 -752 2 -828 0 -1166 -1
-753 -2z"/>
<path d="M449 956 c-170 -49 -297 -195 -322 -371 -21 -147 21 -275 127 -380
223 -222 594 -160 733 123 37 75 38 78 38 192 0 111 -1 117 -36 190 -47 97
-118 169 -217 218 -70 34 -82 37 -176 39 -61 1 -119 -3 -147 -11z m275 -26
c125 -43 238 -157 261 -265 5 -23 1 -20 -15 15 -70 148 -202 242 -361 256
-167 16 -341 -83 -419 -239 -35 -71 -41 -55 -6 18 52 112 184 213 307 234 71
13 163 5 233 -19z m-61 -25 c37 -8 90 -26 117 -41 67 -36 145 -121 178 -191
23 -50 27 -71 27 -153 0 -83 -4 -103 -27 -153 -36 -77 -116 -160 -191 -197
-68 -34 -61 -41 9 -9 66 31 148 111 189 182 43 77 46 56 3 -25 -83 -155 -282
-250 -463 -220 -94 15 -185 61 -249 125 -53 53 -111 148 -103 170 2 6 13 -10
26 -35 40 -84 144 -183 211 -202 14 -4 2 6 -26 23 -65 38 -135 116 -171 189
-25 50 -28 68 -28 152 0 88 3 100 34 162 58 116 160 196 285 223 79 17 98 17
179 0z"/>
<path d="M299 783 c-25 -27 -52 -59 -60 -73 -27 -43 -43 -121 -43 -204 0 -70
4 -90 31 -148 74 -157 229 -239 408 -216 149 19 273 131 314 284 17 63 -1 209
-33 270 -29 56 -38 67 -86 109 -32 28 -31 26 6 -15 58 -66 94 -145 100 -221 3
-35 7 -70 10 -78 8 -24 -25 -114 -62 -163 -132 -182 -395 -209 -567 -58 -146
129 -146 359 0 521 50 55 36 49 -18 -8z"/>
<path d="M443 723 c-32 -3 -49 -12 -72 -39 -18 -20 -40 -34 -53 -34 -13 0 -29
-4 -37 -9 -17 -11 -7 -41 14 -41 19 0 19 -3 -5 -42 -11 -18 -20 -42 -20 -53 0
-13 7 -7 20 20 11 22 27 51 37 65 10 13 14 21 8 18 -5 -3 -21 -1 -35 4 l-25
10 24 9 c17 7 27 6 32 -2 4 -8 15 1 30 24 31 48 68 59 198 61 159 1 190 -7
225 -55 18 -25 31 -37 36 -30 4 8 14 9 31 2 l24 -9 -25 -10 c-14 -5 -29 -7
-34 -4 -12 7 2 -18 25 -43 10 -11 20 -33 23 -50 4 -16 4 -25 1 -19 -4 8 -21 8
-60 -1 -32 -8 -55 -9 -55 -4 0 14 51 31 78 26 17 -3 22 0 20 12 -4 19 -88 30
-88 11 0 -6 -12 -22 -26 -35 -26 -24 -33 -25 -159 -25 -126 0 -133 1 -159 25
-14 13 -26 29 -26 35 0 5 -17 10 -39 10 -34 0 -40 -4 -51 -30 -17 -40 -14
-134 5 -170 13 -24 22 -30 49 -30 18 0 39 7 46 15 10 12 43 15 175 15 132 0
165 -3 175 -15 15 -19 74 -20 89 -2 6 8 13 29 16 48 3 19 11 60 17 92 10 53 9
60 -11 87 -25 35 -26 40 -6 40 21 0 31 30 14 41 -8 5 -24 9 -36 9 -13 0 -37
15 -56 36 l-33 36 -129 3 c-72 2 -149 1 -172 -2z m-50 -222 c16 -16 6 -18 -40
-9 -53 11 -59 33 -6 25 20 -4 41 -11 46 -16z m-45 -31 c24 -6 39 -6 53 3 14 9
21 9 31 -1 16 -16 279 -17 296 0 8 8 15 8 25 0 9 -8 24 -9 48 -2 18 6 34 10
35 10 1 0 4 -9 7 -20 4 -17 -2 -20 -46 -26 -44 -6 -48 -9 -33 -20 13 -9 25
-10 43 -3 13 5 28 9 33 9 12 0 6 -25 -10 -46 -9 -11 -10 -15 -2 -10 6 4 12 3
12 -3 0 -5 -7 -14 -16 -19 -19 -11 -64 -4 -64 10 0 5 8 7 19 3 11 -3 21 0 24
8 4 10 -6 12 -47 6 -28 -5 -130 -6 -226 -3 -96 2 -183 5 -192 5 -19 0 -31 14
-35 42 -3 16 0 16 31 3 29 -12 37 -12 53 0 17 13 16 13 -7 14 -45 1 -70 12
-70 31 0 11 1 19 3 19 1 0 17 -4 35 -10z m2 -112 c0 -5 12 -5 28 -2 18 5 24 3
17 -4 -10 -10 -37 -16 -61 -13 -21 2 -23 27 -3 27 11 0 19 -4 19 -8z"/>
<path d="M448 693 c-25 -3 -44 -13 -58 -30 -28 -36 -25 -48 6 -24 24 19 40 21
179 21 139 0 155 -2 179 -21 34 -27 36 -2 2 30 -22 21 -35 23 -148 26 -68 2
-140 1 -160 -2z"/>
<path d="M415 621 c-61 -13 -3 -21 164 -20 164 1 223 10 143 22 -51 8 -270 6
-307 -2z"/>
<path d="M416 526 c7 -17 58 -26 159 -26 101 0 152 9 159 26 4 12 -23 14 -159
14 -136 0 -163 -2 -159 -14z"/>
<path d="M262 450 c0 -14 2 -19 5 -12 2 6 2 18 0 25 -3 6 -5 1 -5 -13z"/>
<path d="M1986 668 c-18 -95 -19 -108 -7 -108 5 0 12 26 16 58 4 31 9 61 13
66 3 5 17 -21 32 -59 l27 -67 23 58 c27 69 40 87 40 55 0 -40 22 -111 35 -111
6 0 20 18 30 40 16 37 21 40 56 40 35 0 41 -4 59 -40 11 -22 25 -40 30 -40 8
0 -70 172 -86 189 -1 1 -23 -36 -47 -85 l-44 -88 -13 70 c-21 111 -22 112 -54
29 l-29 -76 -29 73 c-16 40 -31 74 -32 76 -2 1 -11 -35 -20 -80z m289 12 l16
-30 -36 0 -36 0 16 30 c9 17 18 30 20 30 2 0 11 -13 20 -30z"/>
<path d="M2360 655 l0 -98 41 6 c58 8 89 40 89 92 0 52 -31 84 -89 92 l-41 6
0 -98z m90 57 c31 -25 32 -88 1 -113 -13 -11 -36 -19 -52 -19 l-29 0 0 75 0
75 29 0 c16 0 39 -8 51 -18z"/>
<path d="M2511 655 c0 -52 5 -95 10 -95 5 0 9 38 9 85 0 78 2 85 20 85 22 0
43 -31 34 -53 -3 -8 -14 -18 -25 -23 -19 -9 -18 -11 13 -53 17 -24 34 -39 36
-32 2 7 -7 25 -22 40 -25 26 -25 27 -6 39 45 28 11 102 -47 102 -21 0 -22 -3
-22 -95z"/>
<path d="M2630 655 c0 -57 4 -95 10 -95 6 0 10 38 10 95 0 57 -4 95 -10 95 -6
0 -10 -38 -10 -95z"/>
<path d="M2680 655 l0 -95 26 0 c45 0 94 30 101 61 7 35 7 33 -1 70 -6 32 -52
59 -101 59 -25 0 -25 0 -25 -95z m95 50 c14 -13 25 -36 25 -50 0 -35 -42 -75
-77 -75 l-29 0 -2 75 -2 75 31 0 c18 0 39 -9 54 -25z"/>
<path d="M1264 689 c-4 -7 3 -10 17 -9 39 3 49 1 49 -14 0 -8 -8 -12 -23 -9
-29 6 -57 -20 -57 -51 0 -32 20 -46 63 -44 l37 1 0 57 c0 31 -5 61 -12 68 -15
15 -65 16 -74 1z m61 -79 c0 -28 -27 -39 -50 -20 -21 18 -1 52 28 48 16 -2 22
-10 22 -28z"/>
<path d="M1372 605 c0 -54 3 -95 9 -95 5 0 9 16 9 35 0 32 2 35 19 25 51 -27
102 2 103 59 2 57 -51 88 -103 61 -13 -7 -19 -7 -19 0 0 5 -4 10 -8 10 -5 0
-9 -43 -10 -95z m120 50 c18 -41 -3 -75 -47 -75 -44 0 -65 34 -47 75 9 20 19
25 47 25 28 0 38 -5 47 -25z"/>
<path d="M1544 689 c-4 -7 3 -10 17 -9 39 4 49 1 49 -14 0 -9 -7 -12 -19 -9
-31 8 -61 -14 -61 -46 0 -37 18 -51 63 -49 l37 1 0 57 c0 31 -5 61 -12 68 -15
15 -65 16 -74 1z m61 -79 c0 -20 -6 -26 -26 -28 -30 -4 -46 22 -28 45 20 23
54 12 54 -17z"/>
<path d="M1650 630 c0 -40 4 -70 10 -70 6 0 10 22 10 49 0 42 4 52 28 70 18
13 22 20 12 21 -9 0 -21 -5 -28 -12 -9 -9 -12 -9 -12 0 0 7 -4 12 -10 12 -6 0
-10 -30 -10 -70z"/>
<path d="M1742 677 c-53 -57 8 -139 82 -111 29 11 16 23 -19 17 -43 -7 -65 9
-65 47 0 38 22 54 65 47 35 -6 48 6 19 17 -31 12 -61 6 -82 -17z"/>
<path d="M1874 689 c-5 -9 -1 -10 16 -6 23 6 50 -7 50 -23 0 -4 -14 -7 -32 -6
-25 1 -35 -5 -47 -26 -14 -24 -14 -28 3 -47 13 -15 29 -20 53 -18 l34 2 -3 65
c-3 65 -3 65 -35 68 -17 2 -34 -2 -39 -9z m62 -71 c9 -28 -20 -52 -47 -37 -19
10 -25 39 -12 52 15 16 52 6 59 -15z"/>
<path d="M1820 398 c0 -25 -3 -29 -12 -20 -7 7 -20 12 -29 12 -19 0 -49 -35
-49 -57 0 -23 32 -44 66 -41 l34 2 0 68 c0 37 -2 68 -5 68 -3 0 -5 -14 -5 -32z
m-3 -44 c9 -24 -10 -49 -38 -49 -24 0 -36 23 -25 51 7 19 55 18 63 -2z"/>
<path d="M2130 394 c0 -23 -2 -25 -15 -14 -25 21 -65 -3 -65 -39 0 -36 18 -51
61 -49 l34 1 0 64 c1 34 -3 63 -7 63 -4 0 -8 -12 -8 -26z m-2 -56 c2 -19 -2
-28 -18 -33 -24 -8 -50 10 -50 35 0 24 10 31 40 28 19 -2 26 -10 28 -30z"/>
<path d="M1202 390 c-7 -12 -8 -20 -2 -20 5 0 10 -18 10 -40 0 -32 4 -40 18
-39 10 0 12 3 5 6 -15 6 -18 73 -3 73 6 0 10 5 10 11 0 5 -4 8 -9 4 -5 -3 -11
2 -13 10 -2 13 -5 12 -16 -5z"/>
<path d="M1498 393 c-2 -10 -1 -36 2 -58 4 -30 10 -41 25 -43 18 -2 18 -2 3 8
-11 6 -18 23 -18 40 0 22 5 30 18 30 16 1 16 1 0 14 -10 7 -15 16 -11 19 3 4
2 7 -4 7 -6 0 -12 -8 -15 -17z"/>
<path d="M1254 345 l1 -50 38 -3 37 -3 0 50 c0 62 -18 68 -22 9 -2 -35 -7 -43
-23 -43 -16 0 -21 9 -26 45 l-7 45 2 -50z"/>
<path d="M1397 383 c-15 -14 -6 -40 19 -51 28 -13 23 -37 -7 -29 -11 3 -19 1
-19 -5 0 -5 12 -8 28 -6 34 4 37 38 4 53 -27 12 -23 31 7 28 13 -2 20 1 16 7
-7 11 -38 13 -48 3z"/>
<path d="M1469 388 c-5 -20 -2 -98 4 -98 4 0 7 23 7 50 0 28 -2 50 -5 50 -3 0
-5 -1 -6 -2z"/>
<path d="M1553 340 c0 -30 2 -43 4 -27 2 15 2 39 0 55 -2 15 -4 2 -4 -28z"/>
<path d="M1590 370 c-24 -24 -24 -29 -4 -58 20 -28 58 -28 78 0 9 12 16 26 16
30 0 14 -39 48 -55 48 -8 0 -24 -9 -35 -20z m67 -16 c8 -22 -10 -49 -32 -49
-10 0 -22 7 -28 16 -15 24 -1 49 28 49 15 0 28 -7 32 -16z"/>
<path d="M1868 379 c-21 -12 -24 -59 -6 -77 15 -15 51 -15 66 0 19 19 15 66
-7 78 -24 12 -31 12 -53 -1z m59 -25 c8 -22 -10 -49 -32 -49 -10 0 -22 7 -28
16 -15 24 -1 49 28 49 15 0 28 -7 32 -16z"/>
<path d="M1962 336 c1 -42 2 -45 5 -14 4 39 28 67 43 52 5 -5 11 -27 13 -49 3
-33 4 -31 3 10 -1 49 -1 50 -33 51 l-33 1 2 -51z"/>
<path d="M2178 379 c-21 -12 -24 -59 -6 -77 14 -14 64 -16 73 -2 4 6 -5 7 -24
4 -23 -5 -31 -2 -41 16 -16 30 -6 50 27 50 l28 -1 -28 -15 c-16 -9 -26 -18
-24 -21 3 -3 20 3 37 13 28 17 29 20 13 31 -20 15 -32 16 -55 2z"/>
<path d="M2315 380 c-5 -8 1 -11 15 -8 13 2 25 -2 27 -8 2 -6 -6 -10 -18 -10
-12 1 -26 -6 -32 -16 -14 -22 7 -48 40 -48 23 0 24 3 21 48 -3 39 -6 47 -25
50 -11 2 -24 -2 -28 -8z m45 -56 c0 -20 -30 -30 -40 -13 -11 17 7 40 26 32 8
-3 14 -12 14 -19z"/>
<path d="M2392 325 c0 -38 3 -61 5 -49 3 17 11 21 41 20 31 -1 38 3 46 26 8
22 6 32 -9 48 -19 21 -50 27 -60 10 -4 -6 6 -10 23 -10 34 0 47 -22 32 -51
-20 -37 -79 -12 -66 28 3 10 1 25 -4 33 -7 10 -9 -7 -8 -55z"/>
<path d="M2510 379 c0 -6 6 -9 14 -6 8 3 20 -1 27 -9 10 -12 8 -14 -11 -12
-26 3 -46 -22 -37 -46 4 -10 18 -16 37 -16 28 0 30 2 30 38 0 21 -5 43 -12 50
-15 15 -48 16 -48 1z m43 -65 c-3 -8 -12 -14 -19 -14 -20 0 -30 30 -13 40 17
11 40 -7 32 -26z"/>
<path d="M2589 385 c-5 -3 -2 -95 4 -95 4 0 7 14 7 32 0 17 7 39 16 49 15 17
15 18 -5 16 -12 -1 -21 -1 -22 -2z"/>
<path d="M2647 372 c-21 -23 -22 -46 -1 -66 17 -17 59 -22 68 -7 3 5 -9 8 -27
7 -29 -1 -32 2 -32 29 0 27 4 31 35 35 27 4 31 7 17 13 -29 11 -43 9 -60 -11z"/>
<path d="M2740 379 c0 -6 6 -9 14 -6 8 3 20 -1 27 -9 11 -13 9 -14 -13 -9 -19
5 -29 2 -36 -11 -16 -28 3 -54 38 -54 28 0 30 3 30 38 0 21 -5 43 -12 50 -15
15 -48 16 -48 1z m40 -60 c0 -23 -28 -26 -37 -3 -6 16 15 37 29 28 4 -3 8 -14
8 -25z"/>
<path d="M2828 383 c-14 -3 -18 -15 -18 -49 0 -24 5 -44 10 -44 6 0 10 14 10
32 0 17 7 40 17 50 16 18 13 20 -19 11z"/>
</g>
</svg>
